# xmcd CD database file
#
# Track frame offsets:
#	150
#	34929
#	186244
#	221362
#	316972
#
# Disc length: 4308 seconds
#
# Revision: 0
# Processed by: cddbd v1.5.2PL0 Copyright (c) Steve Scherf et al.
# Submitted via: CDex 1.70beta2
#
DISCID=4110d205
DTITLE=Paolo Vinaccia - Very Much Alive - 06 Bonus Tracks
DYEAR=2010
DGENRE=Jazz
TTITLE0=Moving Metal
TTITLE1=Budapest
TTITLE2=Bugge 1
TTITLE3=Bugge Amsterdam
TTITLE4=Paolos Siste Sang
EXTD=YEAR: 2010
EXTT0=
EXTT1=
EXTT2=
EXTT3=
EXTT4=
PLAYORDER=
